<svg xmlns="http://www.w3.org/2000/svg" viewBox="18 18 72 72"><rect x="18" y="18" width="72" height="72" rx="16" fill="#2F80C9"/><path d="M25,65 C23,53 31,45 42,46 C48,46.5 51,43 59,43 C71,43 81,51 80,62 C79,72 71,78 60,78 C54,78 51,81 42,81 C31,81 26,74 25,65 Z" fill="#E6B36A"/><path d="M32,58 C33,52 38,50 44,51" fill="none" stroke="#fff" stroke-opacity=".45" stroke-width="3" stroke-linecap="round"/><circle cx="37" cy="64" r="2.2" fill="#9A6A2E"/><circle cx="54" cy="71" r="2.2" fill="#9A6A2E"/><circle cx="68" cy="61" r="2" fill="#9A6A2E"/><path d="M64,22 C64,22 54.5,33.5 54.5,39 A9.5,9.5 0 0,0 73.5,39 C73.5,33.5 64,22 64,22 Z" fill="#fff" stroke="#2F80C9" stroke-width="4"/></svg>
